#!OML:ASF F:\VICON\USERDATA\INSTALL\Justin_Nancy\Justin_Nancy.ASF
:FULLY-SPECIFIED
:DEGREES
268
root 8.91396 17.2948 7.96578 6.36732 -72.3814 -1.66689
lowerback 5.34674 1.28597 2.40312
upperback -0.309612 1.90964 1.75073
thorax -3.29896 0.91573 0.302647
lowerneck -17.213 -5.22634 -12.2487
upperneck 24.2854 -6.25545 8.02999
head 11.4042 -3.08876 4.05662
rclavicle -4.74101e-014 -2.3059e-014
rhumerus -26.054 -1.99745 -88.8564
rradius 38.1411
rwrist 3.49403
rhand -12.2391 14.6367
rfingers 7.12502
rthumb 13.8266 -14.8838
lclavicle -4.74101e-014 -2.3059e-014
lhumerus -30.88 17.6307 79.4944
lradius 24.0648
lwrist -11.697
lhand -16.8308 26.2298
lfingers 7.12502
lthumb 9.39857 56.0002
rfemur 3.25488 7.73913 32.8952
rtibia 15.0302
rfoot -14.52 -2.16852
rtoes 18.6326
lfemur -31.9434 -5.43007 -9.2105
ltibia 42.2882
lfoot -10.9457 -0.69857
ltoes -2.42019
269
root 8.83058 17.2503 8.03756 6.40479 -72.8972 -1.64727
lowerback 5.82482 1.18844 1.97356
upperback -0.628858 1.78763 2.06818
thorax -3.92356 0.859396 0.866642
lowerneck -13.7889 -5.37908 -15.8542
upperneck 20.8068 -6.77787 12.0398
head 9.82385 -3.23812 6.0334
rclavicle -1.83876e-014 -1.03368e-014
rhumerus -26.6554 -1.20528 -88.6073
rradius 38.1795
rwrist 3.07622
rhand -12.3342 14.5463
rfingers 7.12502
rthumb 13.7349 -14.9804
lclavicle -1.83876e-014 -1.03368e-014
lhumerus -31.2662 18.2421 79.4396
lradius 24.1946
lwrist -11.7048
lhand -16.5727 26.03
lfingers 7.12502
lthumb 9.64764 55.7891
rfemur 3.88248 8.35145 32.807
rtibia 14.6324
rfoot -14.519 -2.94486
rtoes 17.0364
lfemur -32.1972 -3.17164 -10.7732
ltibia 40.2919
lfoot -10.7118 1.78335
ltoes -31.5754
270
root 8.73678 17.2788 8.09914 7.01518 -73.4345 -2.2673
lowerback 6.09299 1.16199 1.81493
upperback -0.724019 1.75808 2.23859
thorax -4.18395 0.847604 1.12834
lowerneck -16.3559 -5.09473 -12.9938
upperneck 23.8524 -6.04685 8.38793
head 11.0874 -3.03757 4.34894
rclavicle 5.76476e-015 2.14687e-014
rhumerus -27.0068 -0.81544 -88.4304
rradius 38.2349
rwrist 2.82654
rhand -12.3585 14.6188
rfingers 7.12502
rthumb 13.7116 -14.9095
lclavicle 5.76476e-015 2.14687e-014
lhumerus -31.1692 18.4049 79.3017
lradius 24.2944
lwrist -11.9678
lhand -16.2481 25.8052
lfingers 7.12502
lthumb 9.96077 55.5495
rfemur 4.61531 9.09187 32.881
rtibia 14.0998
rfoot -14.5791 -2.50552
rtoes 20.63
lfemur -32.1816 -6.50883 -8.67297
ltibia 38.2091
lfoot -10.4686 0.249039
ltoes -2.89816
271
root 8.64392 17.2759 8.15166 8.25543 -73.8155 -3.44621
lowerback 6.08268 1.14506 2.0226
upperback -0.6782 1.74812 2.238
thorax -4.12432 0.837837 1.01291
lowerneck -16.2512 -5.32756 -10.8671
upperneck 23.3787 -6.42675 6.44596
head 10.789 -3.23552 3.20514
rclavicle 8.34896e-015 1.66979e-014
rhumerus -27.0798 -1.12891 -88.3991
rradius 38.1838
rwrist 2.80539
rhand -12.3387 14.6436
rfingers 7.12502
rthumb 13.7306 -14.8834
lclavicle 8.34896e-015 1.66979e-014
lhumerus -30.5269 17.8603 79.1851
lradius 24.3066
lwrist -11.4533
lhand -16.4496 25.9639
lfingers 7.12502
lthumb 9.76643 55.7174
rfemur 5.17852 8.64048 32.986
rtibia 13.4694
rfoot -14.6231 -1.29399
rtoes 21.0139
lfemur -32.4286 -6.69585 -8.12251
ltibia 36.2173
lfoot -10.0483 0.351529
ltoes -2.9728
272
root 8.54973 17.2686 8.21445 8.67087 -74.1589 -3.78415
lowerback 6.07109 1.05504 2.08969
upperback -0.648105 1.63037 2.20672
thorax -4.0832 0.777867 0.954563
lowerneck -16.117 -5.24088 -10.8224
upperneck 23.0616 -6.33172 6.53021
head 10.6376 -3.17632 3.24153
rclavicle 3.45885e-014 3.89618e-014
rhumerus -27.0929 -1.1339 -88.6056
rradius 38.0303
rwrist 1.99704
rhand -13.3442 13.9979
rfingers 7.12502
rthumb 12.7614 -15.5921
lclavicle 3.45885e-014 3.89618e-014
lhumerus -30.1155 17.8103 79.0094
lradius 24.3864
lwrist -11.2723
lhand -17.1313 26.0363
lfingers 7.12502
lthumb 9.10867 55.8196
rfemur 6.08808 8.15672 32.8434
rtibia 12.2295
rfoot -14.3012 -0.62935
rtoes 18.9231
lfemur -32.5806 -7.49956 -7.66338
ltibia 34.1823
lfoot -9.64384 0.846817
ltoes -1.6829
273
root 8.45565 17.2619 8.27825 9.01231 -74.5294 -3.99495
lowerback 5.96099 1.00758 2.10815
upperback -0.576685 1.56149 2.2016
thorax -3.94612 0.744245 0.947803
lowerneck -16.13 -5.31339 -10.9788
upperneck 22.8105 -6.42452 6.73502
head 10.5708 -3.20379 3.32501
rclavicle 2.77305e-014 2.8625e-014
rhumerus -27.0436 -1.28265 -88.6807
rradius 37.8618
rwrist 1.36479
rhand -13.9695 13.6455
rfingers 7.12502
rthumb 12.1585 -15.9812
lclavicle 2.77305e-014 2.8625e-014
lhumerus -29.678 17.3454 79.1349
lradius 24.5692
lwrist -11.1581
lhand -17.1329 25.9713
lfingers 7.12502
lthumb 9.10708 55.7547
rfemur 6.83415 8.36772 32.7466
rtibia 11.3356
rfoot -14.0102 -0.531026
rtoes 17.0366
lfemur -32.7859 -7.10054 -7.95059
ltibia 32.2555
lfoot -8.99664 1.45796
ltoes -12.3577
274
root 8.35478 17.2636 8.34261 9.30885 -74.8538 -4.13904
lowerback 5.78927 1.07091 2.22943
upperback -0.504334 1.64222 2.0862
thorax -3.76757 0.782516 0.756911
lowerneck -16.2943 -5.49064 -11.0592
upperneck 22.763 -6.69262 6.97652
head 10.6245 -3.30031 3.38258
rclavicle 4.39314e-014 3.18055e-015
rhumerus -27.0541 -1.61332 -88.6047
rradius 37.6712
rwrist 0.865374
rhand -13.7066 13.6988
rfingers 7.12502
rthumb 12.412 -15.9127
lclavicle 4.39314e-014 3.18055e-015
lhumerus -29.1142 16.8959 79.0506
lradius 24.8838
lwrist -10.2967
lhand -16.0153 25.5887
lfingers 7.12502
lthumb 10.1854 55.3221
rfemur 7.63938 8.69553 32.6131
rtibia 10.363
rfoot -13.7111 -0.438268
rtoes 15.5839
lfemur -33.0877 -7.9563 -7.52791
ltibia 30.3993
lfoot -8.48443 1.91258
ltoes -9.18308
275
root 8.25004 17.2618 8.40386 9.77458 -75.1276 -4.49179
lowerback 5.741 1.05284 2.13164
upperback -0.545996 1.61389 2.19516
thorax -3.78956 0.770875 0.927382
lowerneck -16.2733 -5.54473 -11.1262
upperneck 22.6696 -6.73952 6.94962
head 10.5932 -3.32955 3.37577
rclavicle 1.74931e-014 1.98785e-014
rhumerus -27.1677 -1.74824 -88.352
rradius 37.2465
rwrist 0.776831
rhand -14.0003 13.6166
rfingers 7.12502
rthumb 12.1289 -16.0118
lclavicle 1.74931e-014 1.98785e-014
lhumerus -28.8946 17.3991 78.7888
lradius 25.2949
lwrist -8.84389
lhand -14.2643 25.2586
lfingers 7.12502
lthumb 11.8743 54.9019
rfemur 8.57344 8.811 32.5391
rtibia 9.21326
rfoot -13.323 -0.083848
rtoes 16.5019
lfemur -33.3913 -8.88635 -6.94843
ltibia 28.7228
lfoot -8.25401 2.41949
ltoes -4.38537
276
root 8.15023 17.249 8.46306 10.8345 -75.3877 -5.53627
lowerback 5.86085 0.998852 2.10733
upperback -0.577684 1.54979 2.36618
thorax -3.8955 0.739462 1.12138
lowerneck -16.373 -5.5034 -10.9548
upperneck 22.6893 -6.6702 6.76814
head 10.5988 -3.30189 3.29031
rclavicle 9.93923e-017 -2.22639e-014
rhumerus -27.1698 -2.56297 -88.0662
rradius 36.6076
rwrist 1.49758
rhand -14.0631 13.5587
rfingers 7.12502
rthumb 12.0683 -16.0733
lclavicle 9.93923e-017 -2.22639e-014
lhumerus -28.7132 17.656 78.7508
lradius 25.5633
lwrist -8.61671
lhand -14.5746 25.6041
lfingers 7.12502
lthumb 11.575 55.2644
rfemur 9.54783 8.92963 32.6546
rtibia 7.93591
rfoot -12.7629 0.0375977
rtoes 14.6932
lfemur -33.6284 -8.80777 -6.64566
ltibia 27.1549
lfoot -7.79965 2.2976
ltoes -4.37315
